<?xml version="1.0" encoding="UTF-8"?>
<svg id="Layer_1" data-name="Layer 1" xmlns="http://www.w3.org/2000/svg" viewBox="0 0 378 253.05">
  <defs>
    <style>
      .cls-1, .cls-2 {
        fill: #fff;
      }

      .cls-2 {
        fill-rule: evenodd;
      }

      .cls-3 {
        fill: #8c3494;
      }
    </style>
  </defs>
  <rect class="cls-3" width="378" height="253.05"/>
  <polygon class="cls-2" points="263.4 41.11 218.51 86 221.66 111.2 229.93 93.87 255.52 126.55 291.35 16.3 172.04 65.92 204.33 82.85 263.4 41.11"/>
  <path class="cls-1" d="M224.42,119.86h-47.25c-36.03,5.51-39.77,57.88-.39,64.97h47.65v-47.25c15.88.53,19.16,20.34,7.48,27.56,2.36,2.76,11.81,12.99,11.81,12.99,24.81-21.39,10.63-56.57-19.29-58.27ZM207.1,167.11h-26.38c-16.34.98-21.66-25.99-1.58-29.53h27.96v29.53Z"/>
  <path class="cls-2" d="M323.25,143.49h-17.33l-7.48,17.33h22.05c4.43-.2,4.63,6.3,0,6.69h-38.19v-29.92h58.67v-17.72h-8.66c-2.56-36.62-46.36-37.7-57.88-17.72,2.26,1.87,12.99,11.42,12.99,11.42,6.59-10.34,24.9-9.84,27.56,6.3h-50.01v64.97h56.31c12.8-.2,18.7-9.65,20.08-17.72.79-12.99-7.09-21.66-18.11-23.62Z"/>
  <path class="cls-2" d="M154.72,119.86h-22.84c-7.28,8.86-19.88,44.69,5.12,71.66,0,0,10.83-9.25,12.99-11.02-7.68-7.48-20.48-38,4.73-60.64Z"/>
  <path class="cls-2" d="M96.59,192.15c0,7.9-6.41,14.31-14.31,14.31s-14.31-6.41-14.31-14.31,6.41-14.32,14.31-14.32,14.31,6.41,14.31,14.32Z"/>
  <path class="cls-2" d="M66.12,119.86c-36.03,5.51-39.77,57.88-.39,64.97h.26c2.8-6.21,9.03-10.53,16.28-10.53s13.48,4.32,16.28,10.53h14.82v-64.97h-47.25ZM96.05,167.11h-26.38c-16.34.98-21.66-25.99-1.57-29.53h27.96v29.53Z"/>
  <g>
    <path class="cls-2" d="M83.06,104.5c5.8-.98,8.66-12.9-.79-15.55h-15.36v22.64h6.3v-7.09l7.09,7.09h9.85l-7.09-7.09ZM82.31,96.5c0,.82-.67,1.49-1.49,1.49h-7.53v-3.15h7.53c.82,0,1.49.67,1.49,1.49v.17Z"/>
    <path class="cls-2" d="M101.11,88.59c-6.34,0-11.47,5.14-11.47,11.47s5.14,11.47,11.47,11.47,11.47-5.14,11.47-11.47-5.14-11.47-11.47-11.47ZM101.11,105.11c-2.78,0-5.04-2.26-5.04-5.04s2.26-5.04,5.04-5.04,5.04,2.26,5.04,5.04-2.26,5.04-5.04,5.04Z"/>
    <path class="cls-2" d="M166.2,95.11h10.31v-6.65h-8.73c-6.86,0-12.47,5.18-12.47,11.51s5.61,11.51,12.47,11.51h8.73v-6.65h-10.31c-1.51,0-2.86-.72-3.73-1.84h14.04v-6.04h-14.04c.87-1.11,2.21-1.84,3.73-1.84Z"/>
    <path class="cls-2" d="M125.21,104.83c-2.6,0-4.73-2.13-4.73-4.73v-.26c0-2.6,2.13-4.73,4.73-4.73h9.8v-6.65h-8.79c-6.86,0-12.47,5.18-12.47,11.51s5.61,11.51,12.47,11.51h8.79v-6.65h-9.8Z"/>
    <polygon class="cls-2" points="200.46 88.9 178.24 88.9 178.24 94.85 186.38 94.85 186.38 111.12 192.33 111.12 192.33 94.85 200.46 94.85 200.46 88.9"/>
    <polygon class="cls-1" points="147.57 99.93 158.51 88.9 149.65 88.9 143.5 95.1 143.5 88.9 137.55 88.9 137.55 111.12 143.5 111.12 143.5 104.75 149.82 111.12 158.67 111.12 147.57 99.93"/>
  </g>
  <g>
    <path class="cls-1" d="M237.05,195.85c-.98.2-1.85.81-2.59,1.85-.72.99-1.08,1.99-1.08,3,0,.61.13,1.2.38,1.77.32.73.75,1.09,1.3,1.09.28,0,.64-.15,1.08-.45l.62,1.65c-.56.34-1.1.5-1.63.5-.72,0-1.4-.26-2.07-.8-.38-.31-.75-.9-1.09-1.77-.17-.43-.26-1.07-.26-1.93v-.6c0-1.35.72-2.86,2.15-4.55.3-.35.81-.84,1.53-1.48h2.25v1.64c-.21.03-.41.05-.58.06Z"/>
    <path class="cls-1" d="M247,195.79v9.35h-1.87v-1.21c0-.42-.32-.95-.95-1.6-.48-.49-.98-.92-1.5-1.29-.58-.4-1.21-.6-1.9-.6s-1.21.3-1.52.9c-.04.07-.06.15-.06.25,0,.25.12.47.37.67.24.2.49.3.74.3.2,0,.67-.15,1.42-.44l.55,1.7c-.83.43-1.53.64-2.09.64-.62,0-1.19-.17-1.71-.52-.52-.35-.89-.81-1.13-1.38-.11-.25-.16-.55-.16-.91,0-1.06.44-1.87,1.31-2.42.61-.4,1.26-.6,1.95-.6h.18c-.01-.33-.19-.69-.52-1.1-.33-.41-.66-.61-.97-.61h-2.07v-1.15h-.83v-1.64h12.04v1.64h-1.28ZM245.13,195.79h-4.4c1.24.81,1.89,1.86,1.94,3.16.79.31,1.61.93,2.46,1.85v-5.02Z"/>
    <path class="cls-1" d="M250.64,195.79v9.35h-1.87v-9.35h-1.38v-1.64h4.5v1.64h-1.25Z"/>
    <path class="cls-1" d="M259.66,195.79h-8.43v-1.64h11.66v1.64h-1.29v9.35h-1.65c-.16-.48-.97-1.22-2.43-2.23-.6-.41-1.42-.81-2.47-1.2-1.12-.41-2-.62-2.67-.62l-.5-1.86c.44-.35,1.64-.95,3.62-1.8.83-.36,2.22-.91,4.15-1.63ZM259.77,197.81c-.35.12-.72.25-1.12.41-.59.26-1.65.73-3.2,1.4l-.36.16c1.48.52,2.89,1.28,4.24,2.29.17.13.32.24.44.33v-4.58Z"/>
    <path class="cls-1" d="M265.25,195.79v9.35h-1.87v-9.35h-1.38v-1.64h4.5v1.64h-1.25Z"/>
    <path class="cls-1" d="M265.84,195.79v-1.64h5.52c.01-.06.02-.11.02-.14,0-.86-.4-1.42-1.21-1.69-.11-.03-.23-.04-.36-.04-.2,0-.44.04-.74.12-.4.11-.64.16-.71.18-.32.05-.6.15-.83.3-.31.21-.66.4-1.05.57l-.6-1.39c.71-.49,1.66-.92,2.82-1.27.49-.14.95-.21,1.39-.21.46,0,.99.17,1.57.5.99.6,1.51,1.62,1.55,3.07h1.07v1.64h-8.45ZM272.34,206.72c-.76-.69-1.56-1.32-2.42-1.92-.41-.28-1.09-.6-2.05-.95-.76-.27-1.2-.41-1.33-.41l.02-2.19c.16,0,.4,0,.72.03.32.02.57.03.73.03.85,0,1.54-.11,2.07-.33,1.01-.42,1.51-.92,1.51-1.5,0-.42-.19-.77-.58-1.05-.37-.22-.75-.43-1.13-.63-.11-.05-.21-.08-.32-.08-.23,0-.47.06-.74.17-.33.15-.48.33-.46.52.07.49.58.69,1.53.61l-1.01,1.55c-.41.03-.83-.1-1.25-.39-.77-.52-1.15-1.15-1.15-1.9s.39-1.33,1.17-1.75c.64-.35,1.37-.52,2.19-.52.36,0,.67.06.92.17.26.12.52.25.79.39,1.27.65,1.91,1.63,1.91,2.95,0,.94-.39,1.7-1.17,2.29-.6.44-1.45.76-2.56.95.33.16.81.42,1.43.79,1.06.8,1.91,1.52,2.56,2.15l-1.37,1.01Z"/>
    <path class="cls-1" d="M285.47,195.79v9.35h-1.87v-3.71c0-.32-.14-.65-.42-1-.28-.34-.58-.51-.89-.51-.29,0-.57.18-.83.54-.26.36-.4.77-.4,1.23h-2.02c0-.52-.13-.96-.4-1.34-.27-.37-.57-.56-.92-.56-.29,0-.57.1-.84.31-.27.21-.41.45-.44.72l-.06.49v.19c0,.96.59,1.44,1.76,1.44.18,0,.5-.04.95-.12l-.66,1.89c-.38.04-.62.07-.7.07-.88,0-1.68-.32-2.42-.97-.29-.25-.53-.62-.72-1.13-.17-.45-.26-.89-.26-1.32,0-1.01.31-1.83.93-2.46.62-.63,1.44-.94,2.45-.94.94,0,1.73.45,2.37,1.34.69-.9,1.43-1.34,2.23-1.34.44,0,.86.2,1.27.6v-2.76h-10.11v-1.64h13.04v1.64h-1.06Z"/>
    <path class="cls-1" d="M299.5,195.79h-8.43v-1.64h11.66v1.64h-1.29v9.35h-1.65c-.16-.48-.97-1.22-2.43-2.23-.6-.41-1.42-.81-2.47-1.2-1.12-.41-2-.62-2.67-.62l-.5-1.86c.44-.35,1.64-.95,3.62-1.8.83-.36,2.22-.91,4.15-1.63ZM299.61,197.81c-.35.12-.72.25-1.12.41-.59.26-1.65.73-3.2,1.4l-.36.16c1.48.52,2.89,1.28,4.24,2.29.17.13.32.24.44.33v-4.58Z"/>
    <path class="cls-1" d="M305.87,195.79c-.59.82-.89,1.49-.89,2.03,0,.25.3,1.23.91,2.96.31.87.47,1.59.47,2.16,0,1.09-.61,1.85-1.83,2.28-.37.14-1.03.26-1.99.35l.25-1.62c1.1-.23,1.66-.62,1.66-1.17,0-.51-.23-1.29-.69-2.34-.46-1.05-.69-1.82-.69-2.32,0-.64.27-1.42.8-2.34h-1.95v-1.64h5.22v1.64h-1.28Z"/>
    <path class="cls-1" d="M309.88,195.79v9.35h-1.87v-9.35h-1.38v-1.64h4.5v1.64h-1.25Z"/>
    <path class="cls-1" d="M314.19,200.22c-.87,0-1.58-.28-2.11-.83-.53-.55-.79-1.26-.79-2.13,0-.8.27-1.47.81-2.01.54-.54,1.22-.81,2.03-.81,1.1,0,1.89.55,2.38,1.65.21.47.32.93.32,1.38,0,.84-.23,1.51-.69,2-.46.49-1.11.74-1.96.74ZM316.24,206.25c-2.37-2-3.98-3.19-4.83-3.6l.02-2.58c3.26,2.33,5.39,4.19,6.4,5.58v1.92l-1.59-1.32ZM314.58,196.42c-.19-.13-.37-.18-.56-.16-.71.12-1.06.47-1.06,1.05,0,.3.12.57.35.83.23.25.5.38.79.38l.26-.04c.53-.17.8-.49.8-.97,0-.45-.19-.82-.58-1.09Z"/>
    <path class="cls-1" d="M329.59,193.06c-2.18-1.37-3.96-2.06-5.35-2.06-1.64,0-2.84.52-3.61,1.56-.26.36-.41.89-.44,1.59h1.31v1.64h-1.31v9.35h-1.9v-9.35h-1.25v-1.64h1.25c.04-1.33.48-2.41,1.31-3.23.83-.83,1.97-1.33,3.4-1.53.15-.01.42-.05.83-.1h.4c1.14,0,2.27.25,3.4.74.61.28,1.61.85,3,1.71l-1.05,1.32Z"/>
    <path class="cls-1" d="M328.04,195.79v.06c.78.04,1.6.29,2.44.74,1.19.65,1.79,1.53,1.79,2.65,0,.65-.2,1.21-.6,1.69-.4.47-.92.79-1.56.94-.64.15-1.19.17-1.64.07v-1.77c.21.03.41.04.59.04.94,0,1.41-.34,1.41-1.01,0-.8-.81-1.31-2.43-1.52v7.46h-1.65c-.27-.52-.53-.92-.8-1.2-.09-.1-.33-.41-.72-.93-.12-.17-.34-.38-.66-.64-.32-.26-.54-.47-.66-.64-.05-.08-.2-.16-.44-.25-.81-.28-1.47-.43-1.97-.43l-.5-1.86c.41-.3,1.34-.85,2.79-1.67.11-.08.55-.34,1.32-.78.28-.17.75-.44,1.4-.81v-.14h-5.91v-1.64h12.84v1.64h-5.06ZM326.17,197.95c-.3.23-.77.54-1.39.93-.16.07-.34.2-.55.4-.21.2-.4.39-.59.55.2.18.52.43.96.76.41.47.94,1.04,1.57,1.73v-4.37Z"/>
    <path class="cls-1" d="M335.89,200.22c-.87,0-1.58-.28-2.11-.83-.53-.55-.79-1.26-.79-2.13,0-.8.27-1.47.81-2.01.54-.54,1.22-.81,2.03-.81,1.1,0,1.89.55,2.38,1.65.21.47.32.93.32,1.38,0,.84-.23,1.51-.69,2-.46.49-1.11.74-1.96.74ZM337.93,206.25c-2.37-2-3.98-3.19-4.83-3.6l.02-2.58c3.26,2.33,5.39,4.19,6.4,5.58v1.92l-1.59-1.32ZM336.28,196.42c-.19-.13-.37-.18-.56-.16-.71.12-1.06.47-1.06,1.05,0,.3.12.57.35.83.23.25.5.38.79.38l.26-.04c.53-.17.8-.49.8-.97,0-.45-.19-.82-.58-1.09Z"/>
  </g>
  <g>
    <polygon class="cls-1" points="129.14 205.95 132.63 207.12 134.02 205.95 130.54 204.72 129.14 205.95"/>
    <path class="cls-1" d="M130.3,196.27v-2.11h-27.36v2.11h4.6v4.71h3.95s1.12-.36,1.39-.93v1.86c0,.83-.62,1.55-1.39,1.55h-5.81c-.35,0-.7-.16-.7-1.55v-4.39h-2.04v5.63c0,.46.29,2.11,1.76,2.11h7.87c1.23-.04,2.1-1.29,2.17-2.34v-5.4h-1.86c-.19.83-.08,1.39-.93,1.6h-2.32v-2.85h6.74v8.99h2.32v-8.99h1.63v8.99h7.67c.54,0,2.32-.45,2.32-2.42v-5.32h-1.86c0,.52-.08,1.29-.93,1.29h-5.11v-2.54h7.9ZM127.28,200.68c.35.1.81-.46,1.16-.93v2.17c0,.83-.66,1.55-1.16,1.55h-4.88v-2.79h4.88Z"/>
    <rect class="cls-1" x="132.86" y="198.82" width="4.65" height="2.48"/>
    <path class="cls-1" d="M140.07,194.16v2.11h7.65v1.25h-7.65v5.01c.17,1.63,1,2.73,2.59,2.73h6.92v-8.99h1.63v8.99h2.09v-11.1h-13.23ZM147.72,203.77h-4.65c-.7-.1-1.16-.93-1.16-1.86v-2.48h5.81v4.34Z"/>
    <path class="cls-1" d="M163.33,196.27h9.48v1.25h-2.79c-.12.88-1.55,1.35-1.86,0h-4.83v5.32c0,.52.08,2.21,1.5,2.42h3.8v-1.8h-2.55c-.5-.16-.93-.46-.93-1.24v-2.79h2.56v1.55h2.32v-1.24c-.16-.57,2.44-.52,2.56,0v5.52h2.09v-8.99h1.39v8.99h2.09v-11.1h-14.82v2.11Z"/>
    <path class="cls-1" d="M160.03,194.78h-4.94v2.91c.19.93.69,2.08,2.38,2.17h3.95v-3.59c-.12-.61-.54-1.39-1.39-1.49ZM158.53,197.89c-.89,0-1.61-.33-1.61-.73s.72-.73,1.61-.73,1.61.33,1.61.73-.72.73-1.61.73Z"/>
    <polygon class="cls-1" points="155.43 200.96 155.43 202.79 161.39 205.27 161.39 203.33 155.43 200.96"/>
    <path class="cls-1" d="M210.08,194.78h-4.94v2.91c.19.93.69,2.08,2.38,2.17h3.95v-3.59c-.12-.61-.54-1.39-1.39-1.49ZM208.58,197.89c-.89,0-1.61-.33-1.61-.73s.72-.73,1.61-.73,1.61.33,1.61.73-.72.73-1.61.73Z"/>
    <polygon class="cls-1" points="205.47 200.96 205.47 202.79 211.44 205.27 211.44 203.33 205.47 200.96"/>
    <path class="cls-1" d="M222.75,197.52v-1.25h3.85v-2.11h-13.36v2.11h7.65v1.25h-7.65v5.01c.17,1.63,1,2.73,2.59,2.73h6.92v-5.52h1.86c.31,0,.39-.16.46.31v.93c-.12.46-.16.78-.46.93h-.68v1.86h1.38c.46-.05,1.32-.57,1.39-1.24v-5.01h-3.95ZM220.89,203.77h-4.64c-.7-.1-1.16-.93-1.16-1.86v-2.48h5.77l.03.31h0v4.03Z"/>
    <path class="cls-1" d="M184.41,194.16v2.11h7.65v1.25h-7.65v5.01c.16,1.63,1,2.73,2.59,2.73h6.92v-8.99h2.42l-.88,1.76v1.24h1.63c.86.1,1.16.67,1.16,2.17,0,1.03-.24,1.78-1.04,1.86h-1.52v1.86h1.63c.46,0,2.59.21,2.79-1.86.23-4.19.43-5.27-2.56-5.58l.44-1.45h3.27v8.99h2.09v-11.1h-18.94ZM192.06,203.77h-4.65c-.7-.1-1.16-.93-1.16-1.86v-2.48h5.81v4.34Z"/>
  </g>
</svg>