<?xml version="1.0" encoding="UTF-8"?>
<svg id="Layer_1" data-name="Layer 1" xmlns="http://www.w3.org/2000/svg" viewBox="0 0 475.96 499.76">
  <defs>
    <style>
      .cls-1 {
        fill: #fed600;
      }

      .cls-2 {
        fill: #144a96;
      }

      .cls-3 {
        fill: #dedfe0;
      }

      .cls-4 {
        fill: #4b4a4a;
      }
    </style>
  </defs>
  <rect class="cls-3" width="475.96" height="499.76"/>
  <g>
    <g>
      <path class="cls-4" d="M244.07,380.32c-12.89,8.22-25.46,16.57-38.39,24.33-5.9,3.54-12.19,2.09-16.89-2.58-3.34-3.31-4.62-7.06-2.98-11.79,1.41-4.05,2.57-8.24,3.37-12.46,1.17-6.17-.45-11.85-4.02-16.98-.76-1.09-1.58-2.15-2.23-3.31-5.49-9.8-2.55-19.03,8.09-22.35,16.4-5.13,32.18-3.06,46.74,6.43,1.81,1.18,3.5,2.54,5.26,3.8.08.06.3-.07,1.06-.29,0-2.72.03-5.64,0-8.56-.05-3.67,1.63-5.63,5.38-5.63,14.16,0,28.32,0,42.49,0,3.52,0,5.07,1.75,5.07,5.27-.04,24.99-.05,49.98.01,74.98,0,3.79-1.56,5.47-5.37,5.43-14.98-.13-13.83,1.54-13.81-13.01.02-15.99.03-31.99,0-47.99-.01-5.68-.27-5.64-7.64-5.85-4.46-.13-6.63.83-6.55,6.04.3,17.99.13,35.99.11,53.98,0,5.64-1.12,6.77-6.62,6.8-13.6.07-13.17,1.15-13.05-12.9.07-8.1.01-16.21.01-23.36ZM204.78,382.9c1.47-.07,2.38.14,3.02-.18,9.94-4.88,18.53-11.56,25.89-19.81,2.33-2.61.43-4.3-1.69-5.5-7.95-4.5-16.61-6.6-25.69-6.45-4.77.08-5.58,2.04-2.66,5.81,4.2,5.44,5.11,11.34,3.3,17.83-.7,2.53-1.33,5.09-2.17,8.3Z"/>
      <path class="cls-4" d="M125.32,349.66c-7.75,0-15.4-.15-23.04.06-4.38.12-6.34-1.34-6.36-6-.04-12.8-.18-12.8,12.75-12.8,10.16,0,20.33-.02,30.49.01,3.19.01,6.65-.27,6.61-4.23-.05-4.05-3.29-5.57-7.06-5.25-7.28.62-14.54,1.93-21.81,2-4.34.04-8.96-1.08-12.97-2.82-6.7-2.89-8.1-13.46-2.62-18.26,1.16-1.01,4.25-1.48,5.31-.68,9.75,7.38,20.24,4.42,30.73,2.84,3.42-.52,7.04-.93,10.41-.38,11.98,1.94,17.81,11.8,14.41,23.75-.22.79-.39,1.6-.73,3.02,3.05,0,5.83.01,8.6,0,3.8-.02,5.86,1.49,5.81,5.66-.16,14.4,1.41,13.1-12.65,13.08-5,0-10,.11-15-.04-2.83-.08-4.15.61-4.29,3.82-.56,12.57,1.25,14.2,13.51,11.43,3.4-.77,6.77-1.74,10.21-2.32,4.16-.71,7.81,1.53,7.96,5.53.29,7.63.96,15.5-.46,22.9-2.6,13.55-12.8,20.58-25.18,24.4-9.92,3.06-20.12,2.53-30.04-.32-14.48-4.16-23.93-17.27-24.72-34.54-.3-6.44.4-12.94,1.02-19.39.34-3.59,2.56-5.66,6.51-5.23,1.15.12,2.33.01,3.5.02,6.7.02,7.27.87,7.6,7.39.35,6.95.92,13.93,2.08,20.77,1.33,7.84,6.51,12.42,14.42,12.76,5.7.25,11.53-.29,17.16-1.28,2.55-.45,5.32-2.4,6.98-4.48,1.69-2.11,2.15-5.22,3.15-7.89-2.38-.08-4.78-.4-7.14-.2-4.13.35-8.24,1.49-12.35,1.47-8.74-.04-11.93-3.51-12.04-12.28-.08-7-.08-13.99-.14-20.99,0-.3-.23-.59-.61-1.55Z"/>
      <path class="cls-4" d="M380.81,370.46c0,10.67.07,21.33-.02,32-.08,10.3-7.55,16.45-17.26,13.42-14.77-4.61-29.75-4.96-44.95-4.13-10.8.59-14.45-3.01-14.58-13.89,0-.33,0-.67,0-1-.05-14.79,0-14.66,13.83-20.09,2.66-1.04,6.7-3.64,6.66-5.46-.08-4.33-4.64-4.26-8.08-4.71-9.51-1.24-12.16-4.05-12.36-13.53-.12-5.5.05-11,.01-16.5-.03-4.01,1.97-5.67,5.87-5.67,21.66.04,43.33.06,64.99-.01,4.28-.01,5.96,1.88,5.92,6.07-.11,11.16-.04,22.33-.04,33.5ZM342.77,349.67c-4,0-8-.13-11.98.07-1.27.06-2.5.99-3.75,1.52.72,1.24,1.13,3.02,2.21,3.63,2.43,1.37,5.18,2.15,7.79,3.19,10.7,4.23,12.46,15.84,3.32,22.89-2.73,2.1-6.15,3.29-9,5.27-1.48,1.02-2.41,2.84-3.59,4.3,1.64.77,3.22,2.06,4.92,2.23,8.25.83,16.54,1.27,24.8,2.04,3.37.31,4.63-1.13,4.47-4.26-.18-3.32-.5-6.63-.6-9.95-.23-7.98-.35-15.97-.57-23.95-.12-4.5-2.05-7.21-7.03-7-3.66.16-7.32.03-10.99.03Z"/>
      <path class="cls-4" d="M340.41,444.59c-7.22.04-13.03-5.7-13.06-12.91-.03-7.34,5.53-12.92,12.92-12.96,7.32-.04,13.07,5.59,13.13,12.83.06,7.11-5.82,13-13,13.04Z"/>
    </g>
    <g>
      <path class="cls-2" d="M351.28,240.46c-.04.06-.06.09-.06.09-11.5,14.78-26.44,27.23-43.78,36.4-18.37,8.83-39.97,12.03-60.37,12.42,10.3-4.42,17.52-14.71,17.52-26.69,0-14.68-10.84-26.81-24.91-28.75,37.88-1.35,68.32-28.76,69.8-62.87.04-.86.06-1.73.06-2.61,0-1.82-.08-3.62-.25-5.39,0-3.06.04-6.52.25-9.43.5-7.08,10.29-12.04,10.29-12.04h39.47c8.7,1.34,11.37,10.7,11.37,10.7,4.88,49.4-18.09,86.13-19.39,88.17Z"/>
      <circle class="cls-1" cx="134.8" cy="88.56" r="33.39" transform="translate(15.82 197.45) rotate(-75.77)"/>
      <circle class="cls-2" cx="337.97" cy="88.56" r="33.39" transform="translate(173.07 396.58) rotate(-76.52)"/>
      <path class="cls-1" d="M264.59,262.68c0,11.98-7.22,22.27-17.52,26.69-8.38.17-16.56-.14-24.24-.73-27.34-2.09-48.27-7.68-49.07-7.89,0-.01-.02-.01-.02-.01-27.83-12.68-50.31-33.5-63.56-58.99h-.01c-.12-.22-.24-.45-.36-.68-10.01-19.62-8.28-68.62-8.28-68.62.21-8.01,9.94-11.04,9.94-11.04h39.37c7.62.85,11.43,9.95,11.43,9.95l1.67,12.12c-1.29,5.96-.05,13.17,1.76,19.36,0,.01,0,.02,0,.03,1.2,4.82,2.99,9.44,5.31,13.79.02.05.05.09.07.14.03.05.05.1.07.13,0,.03.02.04.02.04,11.17,20.79,34.17,35.45,61.15,36.9,1.46.08,2.93.12,4.41.12.99,0,1.97-.02,2.94-.06,14.07,1.94,24.91,14.07,24.91,28.75Z"/>
    </g>
  </g>
</svg>