<svg width="44" height="44" viewBox="0 0 44 44" fill="none" xmlns="http://www.w3.org/2000/svg">
<path d="M43.9491 11.506L38.8092 29.1155L37.2881 34.3216H6.7081L5.187 29.1155L0.0470791 11.506C-0.0156773 11.2912 -0.0156934 11.063 0.0470328 10.8482C0.109759 10.6334 0.23261 10.441 0.401093 10.2938C0.569576 10.1465 0.776661 10.0505 0.997916 10.0171C1.21917 9.98373 1.44537 10.0143 1.64981 10.1052L12.8543 15.081L21.0322 3.24314C21.1401 3.0868 21.2844 2.959 21.4527 2.87072C21.6209 2.78245 21.8081 2.73633 21.9981 2.73633C22.1881 2.73633 22.3753 2.78245 22.5435 2.87072C22.7118 2.959 22.8561 3.0868 22.964 3.24314L31.1418 15.081L42.3464 10.1052C42.5508 10.0147 42.7769 9.9844 42.998 10.018C43.2191 10.0515 43.426 10.1475 43.5943 10.2947C43.7627 10.4418 43.8855 10.634 43.9484 10.8486C44.0112 11.0632 44.0115 11.2913 43.9491 11.506Z" fill="#FFDC40"/>
<path d="M38.8091 29.1157L37.288 34.3218H6.70798L5.18689 29.1157H38.8091Z" fill="#FFAB15"/>
<path d="M43.9505 11.5053L38.8105 29.1147L37.2894 34.3208H15.3307C25.8915 29.6218 30.7994 22.5474 31.1432 15.0803L42.3477 10.1045C42.5522 10.0139 42.7782 9.98364 42.9993 10.0172C43.2204 10.0508 43.4273 10.1468 43.5957 10.2939C43.764 10.4411 43.8869 10.6333 43.9497 10.8479C44.0126 11.0624 44.0128 11.2905 43.9505 11.5053Z" fill="#FFAB15"/>
<path d="M42.0074 36.0577C42.0072 37.4382 41.4587 38.7621 40.4826 39.7384C39.5065 40.7146 38.1827 41.2633 36.8022 41.2638H7.19499C5.81424 41.2638 4.49005 40.7153 3.51372 39.7389C2.53739 38.7626 1.98889 37.4384 1.98889 36.0577C1.98889 34.6769 2.53739 33.3527 3.51372 32.3764C4.49005 31.4001 5.81424 30.8516 7.19499 30.8516H36.8022C37.0407 30.8519 37.279 30.868 37.5155 30.8997C38.7605 31.0721 39.9011 31.6891 40.7267 32.6369C41.5524 33.5846 42.0073 34.799 42.0074 36.0559V36.0577Z" fill="#FFAB15"/>
<path d="M41.9045 35.0255C41.6663 36.2031 41.0281 37.262 40.0982 38.0226C39.1682 38.7832 38.0038 39.1987 36.8024 39.1987H7.19525C5.99395 39.1984 4.82969 38.7828 3.89982 38.0222C2.96994 37.2616 2.33166 36.2029 2.09314 35.0255C2.33148 33.848 2.96969 32.7891 3.89959 32.0284C4.82948 31.2676 5.99383 30.8519 7.19525 30.8516H36.8024C38.0039 30.8516 39.1685 31.2672 40.0984 32.028C41.0284 32.7888 41.6665 33.8479 41.9045 35.0255Z" fill="#FFDC40"/>
<path d="M42.0084 36.0577C42.0082 37.4382 41.4598 38.7621 40.4837 39.7384C39.5076 40.7146 38.1837 41.2633 36.8032 41.2638H7.19602C6.30393 41.264 5.42675 41.035 4.6487 40.5985C3.87066 40.1621 3.21788 39.533 2.75305 38.7716C3.55657 38.7879 4.40133 38.8094 5.2925 38.8395C40.2648 40.0082 36.8032 30.8516 36.8032 30.8516L37.5165 30.8997C38.7615 31.0721 39.9021 31.6891 40.7278 32.6369C41.5534 33.5846 42.0083 34.799 42.0084 36.0559V36.0577Z" fill="#FFAB15"/>
<path d="M21.6341 6.03857L15.3306 14.9408" stroke="#FFEA84" stroke-width="1.57875" stroke-miterlimit="10" stroke-linecap="round"/>
<path d="M2.09314 11.9453L10.6577 15.7523" stroke="#FFEA84" stroke-width="1.57875" stroke-miterlimit="10" stroke-linecap="round"/>
<path d="M20.582 32.2695H24.8394" stroke="#FFEA84" stroke-width="1.57875" stroke-miterlimit="10" stroke-linecap="round"/>
<path d="M6.54346 32.2695H16.9892" stroke="#FFEA84" stroke-width="1.57875" stroke-miterlimit="10" stroke-linecap="round"/>
</svg>
